<svg width="301" height="133" viewBox="0 0 301 133" fill="none" xmlns="http://www.w3.org/2000/svg">
<g clip-path="url(#clip0)">
<path d="M267.117 2.34706L166.402 97.1096L113.395 47.2346L33.8833 122.047" stroke="#FAB371" stroke-opacity="0.9" stroke-width="12" stroke-linecap="round" stroke-linejoin="round"/>
<path d="M203.508 2.34706H267.117V62.1971" stroke="#FAB371" stroke-opacity="0.9" stroke-width="12" stroke-linecap="round" stroke-linejoin="round"/>
<path d="M183.048 113.091C184.263 113.091 185.283 113.237 186.107 113.529C186.941 113.821 187.722 114.247 188.449 114.806L187.025 116.383C186.458 115.94 185.855 115.619 185.216 115.419C184.577 115.21 183.908 115.106 183.207 115.106C182.241 115.106 181.349 115.327 180.533 115.769C179.717 116.212 179.061 116.938 178.564 117.948C178.067 118.957 177.819 120.313 177.819 122.016C177.819 123.676 178.054 125.012 178.524 126.021C179.003 127.023 179.646 127.753 180.453 128.212C181.269 128.663 182.178 128.888 183.181 128.888C184.183 128.888 185.012 128.742 185.668 128.45C186.334 128.149 186.91 127.807 187.398 127.423L188.715 129.013C188.138 129.547 187.389 130.006 186.467 130.39C185.553 130.774 184.436 130.966 183.114 130.966C181.597 130.966 180.232 130.624 179.016 129.939C177.81 129.255 176.852 128.25 176.143 126.923C175.433 125.588 175.078 123.952 175.078 122.016C175.078 120.08 175.438 118.448 176.156 117.121C176.883 115.794 177.85 114.793 179.056 114.117C180.272 113.433 181.602 113.091 183.048 113.091ZM194.572 111.914V119.174C195.13 118.507 195.8 118.002 196.58 117.66C197.37 117.317 198.172 117.146 198.988 117.146C200.337 117.146 201.33 117.493 201.969 118.185C202.607 118.87 202.926 119.825 202.926 121.052V130.653H200.372V121.265C200.372 120.472 200.19 119.9 199.827 119.55C199.472 119.191 198.904 119.012 198.124 119.012C197.379 119.012 196.691 119.233 196.062 119.675C195.441 120.117 194.944 120.597 194.572 121.114V130.653H192.017V112.177L194.572 111.914ZM210.034 124.87C210.105 126.322 210.521 127.378 211.284 128.037C212.056 128.696 212.969 129.026 214.025 129.026C214.725 129.026 215.368 128.926 215.954 128.725C216.539 128.525 217.133 128.233 217.736 127.849L218.894 129.364C218.237 129.856 217.479 130.248 216.619 130.54C215.759 130.824 214.867 130.966 213.945 130.966C212.543 130.966 211.351 130.678 210.366 130.102C209.39 129.518 208.645 128.708 208.131 127.674C207.626 126.639 207.373 125.437 207.373 124.069C207.373 122.742 207.626 121.557 208.131 120.514C208.645 119.47 209.368 118.649 210.3 118.048C211.231 117.447 212.34 117.146 213.626 117.146C215.435 117.146 216.858 117.73 217.896 118.899C218.943 120.059 219.466 121.648 219.466 123.668C219.466 123.893 219.461 124.111 219.453 124.319C219.444 124.528 219.431 124.711 219.413 124.87H210.034ZM213.652 119.024C212.65 119.024 211.821 119.358 211.164 120.025C210.508 120.693 210.131 121.724 210.034 123.117H217.005C216.978 121.782 216.668 120.768 216.073 120.076C215.488 119.375 214.681 119.024 213.652 119.024ZM230.445 128.938C231.128 128.938 231.762 128.834 232.347 128.625C232.941 128.408 233.496 128.129 234.01 127.786L235.234 129.351C234.613 129.835 233.868 130.227 232.999 130.528C232.139 130.82 231.274 130.966 230.405 130.966C228.994 130.966 227.788 130.682 226.786 130.115C225.793 129.547 225.034 128.75 224.511 127.724C223.988 126.697 223.726 125.496 223.726 124.119C223.726 122.784 223.988 121.594 224.511 120.551C225.043 119.5 225.81 118.669 226.813 118.06C227.815 117.451 229.026 117.146 230.445 117.146C232.272 117.146 233.859 117.664 235.207 118.699L233.997 120.263C232.817 119.495 231.637 119.112 230.458 119.112C229.287 119.112 228.329 119.52 227.584 120.338C226.839 121.156 226.467 122.416 226.467 124.119C226.467 125.829 226.839 127.06 227.584 127.811C228.338 128.562 229.292 128.938 230.445 128.938ZM242.554 111.864V130.653H240V112.152L242.554 111.864ZM251.893 117.459L245.853 123.38L252.558 130.653H249.326L242.793 123.443L248.74 117.459H251.893ZM257.896 124.87C257.967 126.322 258.384 127.378 259.147 128.037C259.918 128.696 260.832 129.026 261.887 129.026C262.588 129.026 263.231 128.926 263.816 128.725C264.402 128.525 264.996 128.233 265.599 127.849L266.757 129.364C266.1 129.856 265.342 130.248 264.482 130.54C263.621 130.824 262.73 130.966 261.808 130.966C260.406 130.966 259.213 130.678 258.229 130.102C257.253 129.518 256.508 128.708 255.994 127.674C255.488 126.639 255.235 125.437 255.235 124.069C255.235 122.742 255.488 121.557 255.994 120.514C256.508 119.47 257.231 118.649 258.162 118.048C259.094 117.447 260.202 117.146 261.488 117.146C263.298 117.146 264.721 117.73 265.759 118.899C266.805 120.059 267.329 121.648 267.329 123.668C267.329 123.893 267.324 124.111 267.315 124.319C267.307 124.528 267.293 124.711 267.275 124.87H257.896ZM261.515 119.024C260.513 119.024 259.684 119.358 259.027 120.025C258.371 120.693 257.994 121.724 257.896 123.117H264.868C264.841 121.782 264.53 120.768 263.936 120.076C263.351 119.375 262.544 119.024 261.515 119.024ZM271.921 130.653V128.875H274.05V119.237H271.921V117.459H276.006L276.471 120.551C277.004 119.458 277.655 118.619 278.427 118.035C279.207 117.443 280.218 117.146 281.46 117.146C281.868 117.146 282.227 117.176 282.538 117.234C282.857 117.292 283.181 117.367 283.509 117.459L283.11 122.091H281.141V119.337H281.128C279.026 119.337 277.518 120.751 276.604 123.58V128.875H279.451V130.653H271.921Z" fill="#35BD8B"/>
<g filter="url(#filter0_d)">
<path d="M56.0866 71.4457L21.4768 71.1851L14.6282 106.506L3.63733 106.423L19.1093 26.4433L70.3221 26.8288L68.6113 35.5076L28.3894 35.2049L23.1287 62.5609L57.797 62.8218L56.0866 71.4457ZM131.962 107.389L121.322 107.309L91.4503 44.9215L79.4632 106.993L68.4135 106.91L83.8854 26.9309L94.5256 27.011L124.454 89.6737L136.502 27.3269L147.434 27.4092L131.962 107.389ZM151.781 107.538L167.253 27.5584L189.351 27.7798C196.289 27.832 202.238 29.5087 207.199 32.81C212.199 36.1117 215.766 40.6495 217.899 46.4233C220.033 52.1606 220.622 58.583 219.665 65.6903L219.046 69.7014C217.233 81.3502 212.34 90.6285 204.369 97.5367C196.398 104.408 186.43 107.799 174.464 107.708L151.781 107.538ZM176.533 36.32L164.424 98.9962L175.239 99.1327C183.501 99.1949 190.518 96.8271 196.289 92.0298C202.098 87.2324 205.896 80.623 207.683 72.2014C209.104 65.4642 209.621 59.7287 209.232 54.9947C208.696 49.3062 206.726 44.8539 203.324 41.6376C199.921 38.3847 195.337 36.6632 189.57 36.4731L176.533 36.32ZM282.525 71.4996L246.746 71.2305L241.244 99.5744L282.868 99.8877L281.158 108.512L228.601 108.116L244.073 28.1366L296.046 28.5278L294.335 37.2067L253.353 36.8982L248.398 62.6058L284.177 62.8754L282.525 71.4996Z" fill="#2FA1D7"/>
</g>
</g>
<defs>
<filter id="filter0_d" x="-0.362671" y="26.4433" width="300.408" height="90.0683" filterUnits="userSpaceOnUse" color-interpolation-filters="sRGB">
<feFlood flood-opacity="0" result="BackgroundImageFix"/>
<feColorMatrix in="SourceAlpha" type="matrix" values="0 0 0 0 0 0 0 0 0 0 0 0 0 0 0 0 0 0 127 0" result="hardAlpha"/>
<feOffset dy="4"/>
<feGaussianBlur stdDeviation="2"/>
<feColorMatrix type="matrix" values="0 0 0 0 0 0 0 0 0 0 0 0 0 0 0 0 0 0 0.25 0"/>
<feBlend mode="normal" in2="BackgroundImageFix" result="effect1_dropShadow"/>
<feBlend mode="normal" in="SourceGraphic" in2="effect1_dropShadow" result="shape"/>
</filter>
<clipPath id="clip0">
<rect width="301" height="133" fill="white"/>
</clipPath>
</defs>
</svg>
