<svg width="138" height="65" viewBox="0 0 138 65" fill="none" xmlns="http://www.w3.org/2000/svg">
<g clip-path="url(#clip0)">
<path d="M122.465 1.13568L76.2907 46.9901L51.9883 22.8562L15.5345 59.0571" stroke="white" stroke-opacity="0.9" stroke-width="12" stroke-linecap="round" stroke-linejoin="round"/>
<path d="M93.3025 1.13568H122.465V30.0964" stroke="white" stroke-opacity="0.9" stroke-width="12" stroke-linecap="round" stroke-linejoin="round"/>
<path d="M83.9221 54.7232C84.4793 54.7232 84.9468 54.7938 85.325 54.9352C85.7072 55.0766 86.0651 55.2826 86.3985 55.5531L85.7459 56.3163C85.4857 56.1022 85.2091 55.9468 84.9163 55.8499C84.6236 55.749 84.3165 55.6984 83.9953 55.6984C83.5522 55.6984 83.1435 55.8054 82.7693 56.0195C82.3952 56.2335 82.0944 56.5849 81.8666 57.0734C81.6388 57.562 81.525 58.2182 81.525 59.042C81.525 59.8455 81.6327 60.4917 81.8483 60.9803C82.0679 61.4648 82.3628 61.8182 82.7327 62.0403C83.1069 62.2583 83.5236 62.3674 83.9831 62.3674C84.4427 62.3674 84.8227 62.2967 85.1237 62.1554C85.4287 62.01 85.6931 61.8444 85.9166 61.6587L86.5205 62.4279C86.2561 62.6863 85.9126 62.9085 85.4897 63.0942C85.0709 63.2799 84.5586 63.3728 83.9526 63.3728C83.2573 63.3728 82.6311 63.2072 82.074 62.8761C81.521 62.5451 81.0819 62.0584 80.7565 61.4164C80.4311 60.7703 80.2686 59.9788 80.2686 59.042C80.2686 58.1052 80.4332 57.3157 80.7626 56.6736C81.096 56.0316 81.5393 55.547 82.0923 55.2199C82.6494 54.8889 83.2594 54.7232 83.9221 54.7232ZM89.2056 54.1539V57.667C89.4618 57.3439 89.7688 57.0997 90.1266 56.9341C90.4886 56.7685 90.8564 56.6858 91.2306 56.6858C91.8487 56.6858 92.3041 56.8533 92.5969 57.1885C92.8896 57.5196 93.036 57.982 93.036 58.5756V63.2214H91.8649V58.6786C91.8649 58.2949 91.7816 58.0183 91.6149 57.8487C91.4523 57.6751 91.1919 57.5883 90.8341 57.5883C90.4926 57.5883 90.1775 57.6952 89.8887 57.9093C89.6041 58.1234 89.3764 58.3554 89.2056 58.6059V63.2214H88.0345V54.2811L89.2056 54.1539ZM96.2945 60.423C96.3271 61.1256 96.518 61.6365 96.8678 61.9555C97.2216 62.2744 97.6403 62.434 98.1243 62.434C98.4455 62.434 98.7403 62.3855 99.0087 62.2886C99.2771 62.1917 99.5495 62.0503 99.826 61.8646L100.357 62.5975C100.056 62.8358 99.7081 63.0255 99.3137 63.1669C98.9193 63.3041 98.5107 63.3728 98.0877 63.3728C97.4452 63.3728 96.8983 63.2335 96.447 62.9549C95.9996 62.6723 95.658 62.2805 95.4222 61.7798C95.1905 61.2791 95.0746 60.6977 95.0746 60.0354C95.0746 59.3933 95.1905 58.8199 95.4222 58.3151C95.658 57.8103 95.9895 57.4126 96.4165 57.1219C96.8434 56.8311 97.3518 56.6858 97.9413 56.6858C98.7708 56.6858 99.4235 56.9684 99.8992 57.5338C100.379 58.095 100.619 58.8642 100.619 59.8415C100.619 59.9506 100.617 60.0556 100.613 60.1565C100.609 60.2574 100.603 60.3463 100.595 60.423H96.2945ZM97.9535 57.5943C97.494 57.5943 97.1139 57.7558 96.8129 58.0789C96.5119 58.402 96.3393 58.9006 96.2945 59.575H99.4906C99.4784 58.929 99.336 58.4383 99.0636 58.1031C98.7952 57.7639 98.4253 57.5943 97.9535 57.5943ZM105.652 62.3916C105.966 62.3916 106.256 62.341 106.525 62.2402C106.797 62.1351 107.051 61.9999 107.287 61.8343L107.848 62.5915C107.564 62.8256 107.222 63.0155 106.823 63.1608C106.429 63.3022 106.033 63.3728 105.634 63.3728C104.988 63.3728 104.435 63.2356 103.975 62.9609C103.52 62.6863 103.172 62.3007 102.932 61.804C102.692 61.3074 102.572 60.7259 102.572 60.0596C102.572 59.4135 102.692 58.8381 102.932 58.3333C103.176 57.8245 103.528 57.4226 103.987 57.1279C104.447 56.8332 105.002 56.6858 105.652 56.6858C106.49 56.6858 107.218 56.9362 107.836 57.4368L107.281 58.194C106.74 57.8224 106.199 57.6367 105.658 57.6367C105.122 57.6367 104.683 57.8345 104.341 58.2303C103.999 58.6261 103.829 59.2358 103.829 60.0596C103.829 60.8873 103.999 61.483 104.341 61.8464C104.687 62.2099 105.124 62.3916 105.652 62.3916ZM111.204 54.1296V63.2214H110.033V54.269L111.204 54.1296ZM115.486 56.8372L112.717 59.7022L115.791 63.2214H114.309L111.314 59.7325L114.04 56.8372H115.486ZM118.238 60.423C118.271 61.1256 118.462 61.6365 118.812 61.9555C119.165 62.2744 119.584 62.434 120.068 62.434C120.389 62.434 120.684 62.3855 120.952 62.2886C121.221 62.1917 121.493 62.0503 121.77 61.8646L122.3 62.5975C121.999 62.8358 121.652 63.0255 121.257 63.1669C120.863 63.3041 120.454 63.3728 120.031 63.3728C119.389 63.3728 118.842 63.2335 118.391 62.9549C117.943 62.6723 117.602 62.2805 117.366 61.7798C117.134 61.2791 117.018 60.6977 117.018 60.0354C117.018 59.3933 117.134 58.8199 117.366 58.3151C117.602 57.8103 117.933 57.4126 118.36 57.1219C118.787 56.8311 119.295 56.6858 119.885 56.6858C120.715 56.6858 121.367 56.9684 121.843 57.5338C122.323 58.095 122.563 58.8642 122.563 59.8415C122.563 59.9506 122.561 60.0556 122.557 60.1565C122.553 60.2574 122.546 60.3463 122.538 60.423H118.238ZM119.897 57.5943C119.438 57.5943 119.058 57.7558 118.757 58.0789C118.456 58.402 118.283 58.9006 118.238 59.575H121.434C121.422 58.929 121.28 58.4383 121.007 58.1031C120.739 57.7639 120.369 57.5943 119.897 57.5943ZM124.668 63.2214V62.3613H125.644V57.6973H124.668V56.8372H126.541L126.754 58.3333C126.998 57.8042 127.297 57.3984 127.651 57.1158C128.009 56.829 128.472 56.6858 129.042 56.6858C129.229 56.6858 129.393 56.7 129.536 56.7282C129.682 56.7564 129.831 56.7927 129.981 56.8372L129.798 59.0783H128.895V57.7458H128.889C127.925 57.7458 127.234 58.4302 126.815 59.7991V62.3613H128.121V63.2214H124.668Z" fill="#626463"/>
<g filter="url(#filter0_d)">
<path d="M25.7141 34.5717L9.84649 34.4456L6.70663 51.5368L1.6676 51.4967L8.76106 12.7956L32.2407 12.9821L31.4564 17.1817L13.0157 17.0352L10.6038 30.2725L26.4983 30.3987L25.7141 34.5717ZM60.501 51.964L55.6227 51.9254L41.9274 21.737L36.4316 51.7729L31.3656 51.7327L38.4591 13.0315L43.3373 13.0703L57.0586 43.392L62.5822 13.2232L67.5944 13.263L60.501 51.964ZM69.5872 52.0363L76.6807 13.3352L86.8123 13.4423C89.993 13.4676 92.7205 14.2789 94.9949 15.8764C97.2873 17.474 98.9225 19.6698 99.9007 22.4637C100.879 25.2399 101.149 28.3476 100.71 31.7867L100.427 33.7277C99.595 39.3644 97.3517 43.8541 93.6972 47.1969C90.0429 50.5219 85.4727 52.1626 79.987 52.1189L69.5872 52.0363ZM80.9355 17.5748L75.3836 47.9031L80.3421 47.9692C84.1302 47.9993 87.3471 46.8535 89.9928 44.5321C92.6563 42.2107 94.3975 39.0125 95.2167 34.9374C95.8684 31.6773 96.1052 28.902 95.9271 26.6113C95.6813 23.8587 94.7782 21.7042 93.2182 20.1479C91.6583 18.5739 89.5565 17.7409 86.9123 17.6489L80.9355 17.5748ZM129.53 34.5978L113.126 34.4676L110.603 48.1829L129.687 48.3345L128.903 52.5075L104.807 52.3161L111.9 13.615L135.729 13.8043L134.944 18.0039L116.155 17.8546L113.884 30.2942L130.287 30.4246L129.53 34.5978Z" fill="#999C9D"/>
</g>
</g>
<defs>
<filter id="filter0_d" x="-2.3324" y="12.7956" width="142.061" height="47.7119" filterUnits="userSpaceOnUse" color-interpolation-filters="sRGB">
<feFlood flood-opacity="0" result="BackgroundImageFix"/>
<feColorMatrix in="SourceAlpha" type="matrix" values="0 0 0 0 0 0 0 0 0 0 0 0 0 0 0 0 0 0 127 0" result="hardAlpha"/>
<feOffset dy="4"/>
<feGaussianBlur stdDeviation="2"/>
<feColorMatrix type="matrix" values="0 0 0 0 0 0 0 0 0 0 0 0 0 0 0 0 0 0 0.25 0"/>
<feBlend mode="normal" in2="BackgroundImageFix" result="effect1_dropShadow"/>
<feBlend mode="normal" in="SourceGraphic" in2="effect1_dropShadow" result="shape"/>
</filter>
<clipPath id="clip0">
<rect width="138" height="64.3571" fill="white"/>
</clipPath>
</defs>
</svg>
