<svg width="409" height="557" viewBox="0 0 409 557" fill="none" xmlns="http://www.w3.org/2000/svg">
<path d="M458 313.222L378.836 557H122.632L43.4684 313.222L250.734 162.558L458 313.222Z" fill="#3F3D56"/>
<path d="M147.151 441.374H145.888V440.11H145.642V441.374H144.379V441.62H145.642V442.883H145.888V441.62H147.151V441.374Z" fill="#F2F2F2"/>
<path d="M132.602 517.617H131.34V516.354H131.093V517.617H129.831V517.863H131.093V519.126H131.34V517.863H132.602V517.617Z" fill="#F2F2F2"/>
<path d="M215.736 540.49H214.473V539.227H214.227V540.49H212.965V540.736H214.227V541.999H214.473V540.736H215.736V540.49Z" fill="#F2F2F2"/>
<path d="M201.187 483.084C202.718 483.084 203.958 481.843 203.958 480.312C203.958 478.78 202.718 477.539 201.187 477.539C199.657 477.539 198.416 478.78 198.416 480.312C198.416 481.843 199.657 483.084 201.187 483.084Z" fill="#FF6584"/>
<path d="M353.599 275.025H352.337V273.761H352.09V275.025H350.828V275.271H352.09V276.534H352.337V275.271H353.599V275.025Z" fill="#F2F2F2"/>
<path d="M339.05 351.268H337.788V350.004H337.542V351.268H336.279V351.514H337.542V352.777H337.788V351.514H339.05V351.268Z" fill="#F2F2F2"/>
<path d="M407.635 316.735C409.166 316.735 410.406 315.494 410.406 313.962C410.406 312.431 409.166 311.19 407.635 311.19C406.105 311.19 404.864 312.431 404.864 313.962C404.864 315.494 406.105 316.735 407.635 316.735Z" fill="#FF6584"/>
<path d="M123.609 283.91C126.288 283.91 128.459 281.738 128.459 279.058C128.459 276.379 126.288 274.206 123.609 274.206C120.931 274.206 118.76 276.379 118.76 279.058C118.76 281.738 120.931 283.91 123.609 283.91Z" fill="#F2F2F2"/>
<path d="M118.539 415.713L116.966 415.955C117.458 419.102 117.846 422.318 118.13 425.499L119.716 425.361C119.432 422.138 119.037 418.894 118.539 415.713Z" fill="#E6E6E6"/>
<path d="M114.236 396.763L112.712 397.227C113.634 400.277 114.458 403.403 115.158 406.515L116.716 406.161C116.003 403.015 115.165 399.854 114.236 396.763Z" fill="#E6E6E6"/>
<path d="M107.371 378.589L105.923 379.254C107.253 382.159 108.5 385.139 109.629 388.119L111.119 387.558C109.976 384.543 108.722 381.521 107.371 378.589Z" fill="#E6E6E6"/>
<path d="M98.0876 361.552L96.7437 362.405C98.4548 365.094 100.097 367.88 101.621 370.674L103.02 369.911C101.482 367.083 99.8196 364.269 98.0876 361.552Z" fill="#E6E6E6"/>
<path d="M86.546 345.936L85.3336 346.969C87.3981 349.395 89.4072 351.932 91.3054 354.496L92.5801 353.546C90.668 350.954 88.6381 348.39 86.546 345.936Z" fill="#E6E6E6"/>
<path d="M72.9813 332.032L71.9214 333.217C74.3045 335.345 76.6392 337.584 78.863 339.864L80.0061 338.748C77.7546 336.44 75.3922 334.181 72.9813 332.032Z" fill="#E6E6E6"/>
<path d="M57.6571 320.096L56.7634 321.413C59.4098 323.195 62.0286 325.094 64.5434 327.055L65.5271 325.801C62.9777 323.818 60.3312 321.899 57.6571 320.096Z" fill="#E6E6E6"/>
<path d="M43.7114 311.807V313.609C45.3672 314.475 47.0091 315.383 48.6163 316.312L49.413 314.933C47.5425 313.851 45.642 312.809 43.7114 311.807Z" fill="#E6E6E6"/>
<path d="M118.646 435.332L120.238 435.303C120.268 436.912 120.27 438.529 120.245 440.111L118.653 440.086C118.677 438.522 118.675 436.923 118.646 435.332Z" fill="#E6E6E6"/>
<path d="M250.023 116.868H250.023C288.742 116.868 320.129 151.718 320.129 194.708V249.327H303.339L293.618 229.09L296.049 249.327H188.129L179.292 230.93L181.501 249.327H169.35V206.441C169.35 156.971 205.469 116.868 250.023 116.868Z" fill="#2F2E41"/>
<path d="M181.859 373.264C181.859 373.264 191.655 417.812 184.531 439.195C177.407 460.578 180.078 473.052 180.078 473.052L320.781 470.379C320.781 470.379 317.218 415.139 296.736 408.902C276.254 402.666 181.859 373.264 181.859 373.264Z" fill="#D0CDE1"/>
<path d="M258.444 235.165C282.051 235.165 301.189 216.018 301.189 192.399C301.189 168.78 282.051 149.633 258.444 149.633C234.837 149.633 215.699 168.78 215.699 192.399C215.699 216.018 234.837 235.165 258.444 235.165Z" fill="#FFB9B9"/>
<path d="M231.728 218.237C231.728 218.237 234.4 250.311 224.604 252.093C214.809 253.875 253.101 284.168 253.101 284.168L287.831 257.439C287.831 257.439 265.568 239.62 275.364 222.691L231.728 218.237Z" fill="#FFB9B9"/>
<path d="M247.758 260.112L230.275 244.689C230.275 244.689 221.042 236.056 217.48 241.402C213.918 246.747 205.903 239.62 205.903 239.62L169.392 284.168C169.392 284.168 148.019 302.878 157.815 336.735C167.611 370.591 177.407 392.865 177.407 392.865C177.407 392.865 174.735 378.61 185.421 383.956C196.107 389.301 273.583 411.575 278.035 416.921C282.488 422.267 284.269 427.613 289.612 423.158C294.955 418.703 293.174 416.03 298.517 417.812C303.861 419.594 311.875 407.121 311.875 407.121C311.875 407.121 295.846 398.211 302.97 388.41C310.094 378.61 320.78 322.479 320.78 322.479L344.825 293.077C344.825 293.077 343.934 277.931 325.233 269.021C306.532 260.112 292.284 256.548 290.503 253.875C288.722 251.202 279.817 251.202 279.817 251.202L247.758 260.112Z" fill="#6C63FF"/>
<path d="M342.957 556.979C342.957 556.986 342.964 556.993 342.957 557H150.316C149.699 555.392 148.411 550.083 147.129 532.748C145.349 508.689 172.062 489.982 171.176 488.201C170.282 486.419 172.956 485.525 173.843 483.744C174.736 481.963 173.843 481.069 172.062 476.619C170.282 472.162 173.843 473.049 175.623 470.381C177.404 467.705 176.517 465.924 175.623 461.467C174.736 457.017 181.727 449.129 181.727 449.129C181.727 449.129 181.858 465.924 240.634 466.818C299.409 467.705 316.438 449.129 316.438 449.129C326.892 453.503 335.517 502.943 339.909 533.579C340.539 537.988 341.087 542.001 341.53 545.439C342.292 551.24 342.777 555.392 342.957 556.979Z" fill="#575A88"/>
<path d="M345.222 542.392C345.222 542.392 320.998 564.308 310.887 552.722C300.776 541.136 333.717 523.323 333.717 523.323L345.222 542.392Z" fill="#FFB9B9"/>
<path d="M378.663 454.342C372.428 501.564 367.98 548.786 360.852 547.892C354.852 547.137 345.694 554.609 342.957 556.979L342.936 557H341.717L336.646 548.967L324.217 529.282L320.781 523.834C320.781 523.834 328.393 503.595 329.453 494.061C330.012 489.032 337.115 467.466 333.61 449.008C332.678 444.117 333.374 439.801 332.224 435.146C328.618 420.542 324.593 402.993 323.218 388.013L310.985 312.681L325.236 281.498L339.845 281.272C339.845 281.272 353.73 306.443 353.73 309.112C353.73 311.787 384.898 407.119 378.663 454.342Z" fill="#6C63FF"/>
<path d="M298.518 107.757C298.518 107.757 330.576 101.521 333.248 116.667C335.92 131.813 298.518 130.031 298.518 130.031V107.757Z" fill="#FFB9B9"/>
<path d="M230.094 138.31C237.133 129.242 247.514 123.499 259.104 123.499H260.48C287.018 123.499 308.531 147.524 308.531 177.161V177.161H299.639L298.203 166.225L296.097 177.161H243.359L238.941 167.909L240.045 177.161H229.67C224.829 201.216 231.785 225.272 250.539 249.327H232.865L224.028 230.823L226.238 249.327H192.547L185.919 206.767C185.919 174.894 204.43 147.866 230.094 138.31Z" fill="#2F2E41"/>
<path d="M169.392 288.623C169.392 288.623 150.691 255.657 155.144 216.455C159.596 177.252 153.363 122.904 175.626 117.558C197.889 112.212 303.861 105.085 303.861 105.085C303.861 105.085 306.532 134.486 303.861 138.05C301.189 141.614 293.174 137.159 287.831 138.941C282.488 140.723 227.276 142.505 220.152 158.542L213.028 174.58C213.028 174.58 214.809 195.072 205.903 198.636C196.998 202.199 205.013 222.691 204.122 224.473C203.232 226.255 205.903 239.62 205.903 239.62L205.013 266.349L169.392 288.623Z" fill="#6C63FF"/>
<path d="M325.356 88.7712C317.772 77.4921 314.478 63.8672 316.074 50.3673C317.669 36.8674 324.047 24.3864 334.051 15.1877C344.055 5.98906 357.023 0.681783 370.602 0.228348C384.182 -0.225087 397.474 4.20535 408.069 12.7162C418.664 21.2271 425.859 33.2548 428.351 46.6183C430.842 59.9817 428.464 73.796 421.649 85.5559C414.833 97.3159 404.031 106.243 391.201 110.718C378.371 115.193 364.363 114.92 351.717 109.948C350.897 112.876 349.365 115.554 347.257 117.744C345.148 119.934 342.53 121.566 339.637 122.495C336.743 123.424 333.664 123.621 330.676 123.068C327.688 122.515 324.883 121.229 322.514 119.325C320.144 117.422 318.283 114.96 317.098 112.16C315.912 109.361 315.439 106.311 315.721 103.283C316.002 100.256 317.03 97.3458 318.711 94.8132C320.393 92.2806 322.676 90.2046 325.356 88.7712Z" fill="#3F3D56"/>
<path d="M350.183 62.3217C353.815 62.3217 356.759 59.3765 356.759 55.7434C356.759 52.1103 353.815 49.165 350.183 49.165C346.552 49.165 343.608 52.1103 343.608 55.7434C343.608 59.3765 346.552 62.3217 350.183 62.3217Z" fill="#6C63FF"/>
<path d="M372.616 62.3217C376.247 62.3217 379.191 59.3765 379.191 55.7434C379.191 52.1103 376.247 49.165 372.616 49.165C368.985 49.165 366.041 52.1103 366.041 55.7434C366.041 59.3765 368.985 62.3217 372.616 62.3217Z" fill="#6C63FF"/>
<path d="M395.049 62.3217C398.68 62.3217 401.624 59.3765 401.624 55.7434C401.624 52.1103 398.68 49.165 395.049 49.165C391.417 49.165 388.474 52.1103 388.474 55.7434C388.474 59.3765 391.417 62.3217 395.049 62.3217Z" fill="#6C63FF"/>
<path d="M95.192 326.316H93.9298V325.052H93.6831V326.316H92.4209V326.562H93.6831V327.824H93.9298V326.562H95.192V326.316Z" fill="#F2F2F2"/>
<path d="M80.6437 402.559H79.3814V401.295H79.1348V402.559H77.8726V402.805H79.1348V404.068H79.3814V402.805H80.6437V402.559Z" fill="#F2F2F2"/>
<path d="M163.777 425.432H162.515V424.168H162.268V425.432H161.006V425.678H162.268V426.941H162.515V425.678H163.777V425.432Z" fill="#F2F2F2"/>
<path d="M149.229 368.026C150.759 368.026 152 366.785 152 365.253C152 363.722 150.759 362.481 149.229 362.481C147.698 362.481 146.458 363.722 146.458 365.253C146.458 366.785 147.698 368.026 149.229 368.026Z" fill="#FF6584"/>
<path d="M85.3206 232.303L72.1038 227.085L58.8862 221.866L70.0116 213.023L81.1369 204.18L83.2291 218.241L85.3206 232.303Z" fill="#3F3D56"/>
<path d="M26.4344 429.842L13.2175 424.625L0 419.406L11.1253 410.563L22.2507 401.72L24.3429 415.781L26.4344 429.842Z" fill="#3F3D56"/>
</svg>
