<svg width="35" height="35" viewBox="0 0 35 35" fill="none" xmlns="http://www.w3.org/2000/svg">
<path d="M34.6281 17.8937C34.6281 16.7416 34.526 15.6478 34.351 14.5833H17.8718V21.1603H27.3072C26.8843 23.3187 25.6447 25.1416 23.8072 26.3812V30.7562H29.4364C32.7322 27.7083 34.6281 23.2166 34.6281 17.8937Z" fill="#4285F4"/>
<path d="M17.8718 35C22.5968 35 26.5489 33.425 29.4364 30.7563L23.8072 26.3813C22.2322 27.4313 20.2343 28.0729 17.8718 28.0729C13.3072 28.0729 9.44264 24.9958 8.05722 20.8396H2.25305V25.3458C5.12597 31.0625 11.0322 35 17.8718 35Z" fill="#34A853"/>
<path d="M8.05724 20.8397C7.69266 19.7897 7.50308 18.6668 7.50308 17.5001C7.50308 16.3335 7.70724 15.2105 8.05724 14.1605V9.6543H2.25307C1.05724 12.0168 0.371826 14.671 0.371826 17.5001C0.371826 20.3293 1.05724 22.9835 2.25307 25.346L8.05724 20.8397Z" fill="#FBBC05"/>
<path d="M17.8718 6.92708C20.4531 6.92708 22.7572 7.81667 24.5801 9.55209L29.5676 4.56459C26.5489 1.73542 22.5968 0 17.8718 0C11.0322 0 5.12597 3.9375 2.25305 9.65417L8.05722 14.1604C9.44264 10.0042 13.3072 6.92708 17.8718 6.92708Z" fill="#EA4335"/>
</svg>
